<svg id="Calque_1" data-name="Calque 1" xmlns="http://www.w3.org/2000/svg" viewBox="0 0 326.98 326.98"><defs><style>.cls-1,.cls-2{fill:none;}.cls-2{stroke:#2d2d2e;stroke-linecap:square;stroke-miterlimit:10;stroke-width:0.91px;stroke-dasharray:2.74 2.74;}.cls-3{fill:#2436f5;}.cls-4{fill:#fff;}</style></defs><rect class="cls-1" width="326.98" height="326.98"/><polygon class="cls-2" points="163.49 59.08 223.77 163.49 284.06 267.9 163.49 267.9 42.92 267.9 103.21 163.49 163.49 59.08"/><rect class="cls-3" x="211.32" y="148.61" width="29.26" height="29.26" rx="6.05"/><path class="cls-4" d="M229.66,164.17a2.74,2.74,0,0,1,.63,1.79,2.8,2.8,0,0,1-.94,2.23,4,4,0,0,1-2.74.83h-4.49v-11.3h4.41a3.92,3.92,0,0,1,2.6.76,2.9,2.9,0,0,1,.35,3.82,2.72,2.72,0,0,1-1.48.89A2.8,2.8,0,0,1,229.66,164.17Zm-5.72-1.58h2.26a2.13,2.13,0,0,0,1.46-.45,1.58,1.58,0,0,0,.5-1.25,1.55,1.55,0,0,0-.5-1.23,2.25,2.25,0,0,0-1.53-.45h-2.19Zm3.91,4.45a1.61,1.61,0,0,0,.57-1.32,1.63,1.63,0,0,0-.58-1.33,2.44,2.44,0,0,0-1.61-.48h-2.29v3.6h2.3A2.42,2.42,0,0,0,227.85,167Z"/><rect class="cls-3" x="85.08" y="148.61" width="29.26" height="29.26" rx="6.05"/><path class="cls-4" d="M102.09,166.57H97.32L96.46,169H94.51l4.16-11.12h2.09L104.91,169h-2Zm-.51-1.41-1.87-5.28-1.87,5.28Z"/><rect class="cls-3" x="148.86" y="251.77" width="29.26" height="29.26" rx="6.05"/><path class="cls-4" d="M167,261.82a5.17,5.17,0,0,1,1.86,2.87h-1.94a3.39,3.39,0,0,0-1.27-1.63,3.67,3.67,0,0,0-2.14-.6,3.34,3.34,0,0,0-1.8.5,3.42,3.42,0,0,0-1.24,1.41,4.74,4.74,0,0,0-.46,2.16,4.64,4.64,0,0,0,.46,2.13,3.39,3.39,0,0,0,1.24,1.42,3.33,3.33,0,0,0,1.8.49,3.67,3.67,0,0,0,2.14-.6,3.4,3.4,0,0,0,1.27-1.6h1.94a5.12,5.12,0,0,1-1.86,2.85,5.53,5.53,0,0,1-3.45,1,5.46,5.46,0,0,1-2.84-.73,4.9,4.9,0,0,1-1.9-2,7,7,0,0,1,0-6,5,5,0,0,1,1.9-2,5.46,5.46,0,0,1,2.84-.73A5.53,5.53,0,0,1,167,261.82Z"/></svg>