<svg id="Calque_1" data-name="Calque 1" xmlns="http://www.w3.org/2000/svg" viewBox="0 0 326.98 326.98"><defs><style>.cls-1,.cls-2{fill:none;}.cls-2{stroke:#2d2d2e;stroke-linecap:square;stroke-miterlimit:10;stroke-dasharray:3 3;}.cls-3{fill:#2436f5;}.cls-4{fill:#fff;}</style></defs><rect class="cls-1" width="326.98" height="326.98"/><rect class="cls-2" x="56.15" y="92.51" width="214.67" height="141.95"/><rect class="cls-3" x="256.19" y="148.63" width="29.26" height="29.26" rx="6.05"/><path class="cls-4" d="M274.53,164.19a2.74,2.74,0,0,1,.63,1.79,2.82,2.82,0,0,1-.94,2.24,4,4,0,0,1-2.74.82H267v-11.3h4.41a4,4,0,0,1,2.6.76,2.91,2.91,0,0,1,.35,3.83,2.78,2.78,0,0,1-1.48.89A2.74,2.74,0,0,1,274.53,164.19Zm-5.72-1.58h2.26a2.13,2.13,0,0,0,1.46-.45,1.58,1.58,0,0,0,.5-1.25,1.55,1.55,0,0,0-.5-1.23,2.25,2.25,0,0,0-1.53-.45h-2.19Zm3.91,4.45a1.8,1.8,0,0,0,0-2.64,2.44,2.44,0,0,0-1.61-.48h-2.29v3.6h2.3A2.42,2.42,0,0,0,272.72,167.06Z"/><rect class="cls-3" x="148.86" y="77.88" width="29.26" height="29.26" rx="6.05"/><path class="cls-4" d="M165.87,95.84h-4.76l-.87,2.45h-2l4.16-11.12h2.1l4.14,11.12h-1.95Zm-.51-1.41-1.87-5.28-1.87,5.28Z"/></svg>