<svg id="Calque_1" data-name="Calque 1" xmlns="http://www.w3.org/2000/svg" viewBox="0 0 326.98 326.98"><defs><style>.cls-1,.cls-2{fill:none;}.cls-2{stroke:#2d2d2e;stroke-linecap:square;stroke-miterlimit:10;stroke-dasharray:3 3;}.cls-3{fill:#2436f5;}.cls-4{fill:#fff;}</style></defs><rect class="cls-1" width="326.98" height="326.98"/><rect class="cls-2" x="56.15" y="92.51" width="214.67" height="141.95"/><rect class="cls-3" x="256.19" y="77.88" width="29.26" height="29.26" rx="6.05"/><path class="cls-4" d="M274.53,93.44a2.74,2.74,0,0,1,.63,1.79,2.82,2.82,0,0,1-.94,2.24,4,4,0,0,1-2.74.82H267V87h4.41a4,4,0,0,1,2.6.76,2.91,2.91,0,0,1,.35,3.83,2.78,2.78,0,0,1-1.48.89A2.74,2.74,0,0,1,274.53,93.44Zm-5.72-1.58h2.26a2.13,2.13,0,0,0,1.46-.45,1.58,1.58,0,0,0,.5-1.25,1.55,1.55,0,0,0-.5-1.23,2.25,2.25,0,0,0-1.53-.45h-2.19Zm3.91,4.45a1.8,1.8,0,0,0,0-2.64,2.44,2.44,0,0,0-1.61-.48h-2.29v3.6h2.3A2.42,2.42,0,0,0,272.72,96.31Z"/><rect class="cls-3" x="41.52" y="219.84" width="29.26" height="29.26" rx="6.05"/><path class="cls-4" d="M59.67,229.89a5.18,5.18,0,0,1,1.85,2.86H59.59a3.49,3.49,0,0,0-1.28-1.62,3.66,3.66,0,0,0-2.13-.6,3.34,3.34,0,0,0-1.8.5,3.37,3.37,0,0,0-1.25,1.41,4.86,4.86,0,0,0-.46,2.15,4.79,4.79,0,0,0,.46,2.14,3.4,3.4,0,0,0,1.25,1.42,3.33,3.33,0,0,0,1.8.49,3.66,3.66,0,0,0,2.13-.6,3.48,3.48,0,0,0,1.28-1.6h1.93a5.16,5.16,0,0,1-1.85,2.85,5.54,5.54,0,0,1-3.46,1.05,5.4,5.4,0,0,1-2.83-.73,4.93,4.93,0,0,1-1.91-2,7,7,0,0,1,0-6,5,5,0,0,1,1.91-2,5.4,5.4,0,0,1,2.83-.74A5.55,5.55,0,0,1,59.67,229.89Z"/><rect class="cls-3" x="256.19" y="219.84" width="29.26" height="29.26" rx="6.05"/><path class="cls-4" d="M275.16,237.56a4.79,4.79,0,0,1-2,2,6.77,6.77,0,0,1-3.19.7h-3.78V229h3.78a6.89,6.89,0,0,1,3.19.69,4.8,4.8,0,0,1,2,2,6.69,6.69,0,0,1,0,6Zm-2.25,0a4.56,4.56,0,0,0,0-5.92,4.3,4.3,0,0,0-3.12-1.06H268v8h1.8A4.3,4.3,0,0,0,272.91,237.54Z"/><rect class="cls-3" x="41.52" y="77.88" width="29.26" height="29.26" rx="6.05"/><path class="cls-4" d="M58.54,95.84H53.77l-.86,2.45H51l4.16-11.12h2.1l4.14,11.12h-2ZM58,94.43l-1.88-5.28-1.87,5.28Z"/></svg>