<svg id="Calque_1" data-name="Calque 1" xmlns="http://www.w3.org/2000/svg" viewBox="0 0 326.98 326.98"><defs><style>.cls-1,.cls-2{fill:none;}.cls-2{stroke:#2d2d2e;stroke-linecap:square;stroke-miterlimit:10;stroke-width:0.91px;stroke-dasharray:2.74 2.74;}.cls-3{fill:#2436f5;}.cls-4{fill:#fff;}</style></defs><rect class="cls-1" width="326.98" height="326.98"/><polygon class="cls-2" points="163.49 59.08 223.77 163.49 284.06 267.9 163.49 267.9 42.92 267.9 103.21 163.49 163.49 59.08"/><rect class="cls-3" x="265.86" y="253.27" width="29.26" height="29.26" rx="6.05"/><path class="cls-4" d="M284.19,268.83a2.74,2.74,0,0,1,.63,1.79,2.79,2.79,0,0,1-.94,2.23,4,4,0,0,1-2.74.83h-4.49v-11.3h4.41a4,4,0,0,1,2.6.76,2.58,2.58,0,0,1,.91,2.09A2.63,2.63,0,0,1,284,267a2.71,2.71,0,0,1-1.47.88A2.81,2.81,0,0,1,284.19,268.83Zm-5.72-1.58h2.26a2.11,2.11,0,0,0,1.46-.45,1.58,1.58,0,0,0,.51-1.25,1.56,1.56,0,0,0-.51-1.23,2.22,2.22,0,0,0-1.53-.45h-2.19Zm3.91,4.45a1.8,1.8,0,0,0,0-2.64,2.38,2.38,0,0,0-1.61-.48h-2.29v3.6h2.31A2.41,2.41,0,0,0,282.38,271.7Z"/><rect class="cls-3" x="148.86" y="44.45" width="29.26" height="29.26" rx="6.05"/><path class="cls-4" d="M165.87,62.4h-4.76l-.87,2.45h-2l4.16-11.12h2.1l4.14,11.12h-1.95Zm-.51-1.4-1.87-5.28L161.62,61Z"/><rect class="cls-3" x="28.29" y="251.77" width="29.26" height="29.26" rx="6.05"/><path class="cls-4" d="M46.44,261.82a5.17,5.17,0,0,1,1.85,2.87H46.36a3.4,3.4,0,0,0-1.28-1.63,3.66,3.66,0,0,0-2.13-.6,3.34,3.34,0,0,0-1.8.5,3.37,3.37,0,0,0-1.25,1.41,4.86,4.86,0,0,0-.46,2.15,4.79,4.79,0,0,0,.46,2.14,3.4,3.4,0,0,0,1.25,1.42,3.33,3.33,0,0,0,1.8.49,3.66,3.66,0,0,0,2.13-.6,3.42,3.42,0,0,0,1.28-1.6h1.93a5.16,5.16,0,0,1-1.85,2.85,5.54,5.54,0,0,1-3.46,1,5.4,5.4,0,0,1-2.83-.73,4.84,4.84,0,0,1-1.9-2,6.89,6.89,0,0,1,0-6,4.92,4.92,0,0,1,1.9-2,5.4,5.4,0,0,1,2.83-.73A5.54,5.54,0,0,1,46.44,261.82Z"/></svg>