<svg id="Calque_1" data-name="Calque 1" xmlns="http://www.w3.org/2000/svg" viewBox="0 0 326.98 326.98"><defs><style>.cls-1,.cls-2{fill:none;}.cls-2{stroke:#2d2d2e;stroke-linecap:square;stroke-miterlimit:10;stroke-dasharray:3 3;}.cls-3{fill:#2436f5;}.cls-4{fill:#fff;}</style></defs><rect class="cls-1" width="326.98" height="326.98"/><rect class="cls-2" x="56.15" y="92.51" width="214.67" height="141.95"/><rect class="cls-3" x="256.19" y="148.63" width="29.26" height="29.26" rx="6.05"/><path class="cls-4" d="M274.53,164.19a2.74,2.74,0,0,1,.63,1.79,2.82,2.82,0,0,1-.94,2.24,4,4,0,0,1-2.74.82H267v-11.3h4.41a4,4,0,0,1,2.6.76,2.58,2.58,0,0,1,.91,2.09,2.62,2.62,0,0,1-.56,1.74,2.78,2.78,0,0,1-1.48.89A2.74,2.74,0,0,1,274.53,164.19Zm-5.72-1.58h2.26a2.13,2.13,0,0,0,1.46-.45,1.58,1.58,0,0,0,.5-1.25,1.55,1.55,0,0,0-.5-1.23,2.24,2.24,0,0,0-1.53-.45h-2.19Zm3.91,4.45a1.8,1.8,0,0,0,0-2.64,2.44,2.44,0,0,0-1.61-.48h-2.29v3.6h2.3A2.42,2.42,0,0,0,272.72,167.06Z"/><rect class="cls-3" x="41.52" y="148.63" width="29.26" height="29.26" rx="6.05"/><path class="cls-4" d="M60.49,166.36a4.79,4.79,0,0,1-2,2,6.77,6.77,0,0,1-3.19.7H51.49v-11.3h3.78a6.89,6.89,0,0,1,3.19.7,4.75,4.75,0,0,1,2,2,6.69,6.69,0,0,1,0,6Zm-2.25,0a4.56,4.56,0,0,0,0-5.92,4.26,4.26,0,0,0-3.12-1.06H53.31v8h1.81A4.3,4.3,0,0,0,58.24,166.34Z"/><rect class="cls-3" x="148.86" y="219.84" width="29.26" height="29.26" rx="6.05"/><path class="cls-4" d="M167,229.89a5.15,5.15,0,0,1,1.86,2.86h-1.94a3.47,3.47,0,0,0-1.27-1.62,3.67,3.67,0,0,0-2.14-.6,3.25,3.25,0,0,0-1.8.5,3.42,3.42,0,0,0-1.24,1.41,5.23,5.23,0,0,0,0,4.29,3.45,3.45,0,0,0,1.24,1.42,3.33,3.33,0,0,0,1.8.49,3.67,3.67,0,0,0,2.14-.6,3.44,3.44,0,0,0,1.27-1.61h1.94a5.11,5.11,0,0,1-1.86,2.86,5.53,5.53,0,0,1-3.45,1.05,5.44,5.44,0,0,1-2.84-.73,5,5,0,0,1-1.9-2,7,7,0,0,1,0-6,5,5,0,0,1,1.9-2,5.44,5.44,0,0,1,2.84-.74A5.54,5.54,0,0,1,167,229.89Z"/><rect class="cls-3" x="148.86" y="77.88" width="29.26" height="29.26" rx="6.05"/><path class="cls-4" d="M165.87,95.84h-4.76l-.87,2.45h-2l4.16-11.12h2.1l4.14,11.12h-1.95Zm-.51-1.41-1.87-5.28-1.87,5.28Z"/></svg>